# xmcd
#
# Track frame offsets:
#	150
#	10852
#	21634
#	33294
#	46053
#	64599
#	74268
#	86296
#	96416
#	106565
#
# Disc length: 1577 seconds
#
# Revision: 1
# Processed by: cddbd v1.5.2PL0 Copyright (c) Steve Scherf et al.
# Submitted via: audiograbber 1.83.01
#
DISCID=7206270a
DTITLE=Jean Shepard - For The Good Times
DYEAR=1975
DGENRE=Country
TTITLE0=Just Like Walkin' In The Sunshine
TTITLE1=A Woman's Hand
TTITLE2=Seven Lonely Days
TTITLE3=Then He Touched Me
TTITLE4=For The Good Times
TTITLE5=Invisible Tears
TTITLE6=Your Forevers Don't Last Very Long
TTITLE7=Got You On My Mind
TTITLE8=Many Happy Hangovers To You
TTITLE9=Today I Started Loving You Again
EXTD=
EXTT0=
EXTT1=
EXTT2=
EXTT3=
EXTT4=
EXTT5=
EXTT6=
EXTT7=
EXTT8=
EXTT9=
PLAYORDER=
